<svg xmlns="http://www.w3.org/2000/svg" viewBox="-215.0 -215.0 430.0 430.0">
  <g fill="#000" fill-rule="nonzero">
    <path d="M1.1 -1.9L-48.6 -30.6L-50.8 -26.7L-1.1 1.9Z"/>
    <path d="M0.6 1.1L82.1 -46.0L80.9 -48.1L-0.6 -1.1Z"/>
    <path d="M-5.0 0.0A5.0 5.0 0 1 1 5.0 0.0A5.0 5.0 0 1 1 -5.0 0.0Z"/>
    <path d="M15.3 -169V-168Q13.7 -167.9 12.9 -167.5Q12 -167 11.8 -165.9Q11.5 -164.8 11.5 -162.9V-149Q11.5 -145.7 11.1 -143.2Q10.6 -140.6 9.5 -138.8Q8.3 -136.8 6 -135.5Q3.6 -134.3 0.4 -134.3Q-1.9 -134.3 -4 -134.9Q-6.2 -135.4 -7.8 -136.9Q-9.3 -138.2 -10.1 -139.7Q-10.9 -141.3 -11.2 -143.4Q-11.5 -145.6 -11.5 -148.8V-163.9Q-11.5 -165.7 -11.8 -166.5Q-12 -167.4 -12.8 -167.7Q-13.7 -168 -15.3 -168V-169Q-14.2 -169 -12.4 -168.9Q-10.7 -168.9 -8.7 -168.9Q-6.8 -168.9 -5 -168.9Q-3.2 -169 -2.1 -169V-168Q-3.7 -168 -4.5 -167.7Q-5.4 -167.4 -5.7 -166.5Q-6 -165.7 -6 -163.9V-147.3Q-6 -144.8 -5.7 -142.8Q-5.4 -140.7 -4.7 -139.2Q-3.9 -137.7 -2.5 -136.8Q-1 -136 1.3 -136Q4.9 -136 6.8 -137.6Q8.8 -139.2 9.6 -142Q10.4 -144.9 10.4 -148.4V-162.7Q10.4 -164.7 10 -165.8Q9.6 -166.9 8.6 -167.4Q7.7 -167.9 5.9 -168V-169Q6.8 -169 8.2 -168.9Q9.7 -168.9 10.9 -168.9Q12.1 -168.9 13.3 -168.9Q14.5 -169 15.3 -169Z"/>
    <path d="M64.3 -156.9Q66.7 -155.9 67.7 -154.9Q68.8 -153.8 69.4 -152.8Q69.8 -152.3 70.1 -152Q70.4 -151.7 70.7 -151.6Q71.1 -151.4 71.5 -151.8Q71.9 -152.2 72.5 -153.1L73.5 -152.7Q73.1 -151.9 72.6 -150.9Q72.1 -149.8 71.3 -148Q70.6 -146.3 69.4 -143.4L68.3 -143.8Q69.1 -146.1 69.1 -148.4Q69.1 -150.8 68.1 -152.7Q67.1 -154.7 64.6 -155.7Q62.4 -156.6 60.3 -155.9Q58.3 -155.2 57.4 -152.9Q56.6 -151 57 -149.3Q57.4 -147.5 58.7 -145.7Q59.9 -143.9 61.5 -141.6Q63.1 -139.3 64.3 -137.1Q65.5 -135 65.8 -132.9Q66.2 -130.8 65.2 -128.4Q64 -125.5 61.8 -124.2Q59.7 -122.9 57.1 -122.9Q54.4 -122.9 51.7 -124Q49.2 -125 48 -126.1Q46.7 -127.3 46 -128.3Q45.2 -129.3 44.7 -129.5Q44.3 -129.7 43.9 -129.3Q43.5 -128.9 42.9 -128L41.9 -128.4Q42.4 -129.3 43 -130.7Q43.5 -132 44.4 -134.1Q45.3 -136.2 46.7 -139.4L47.7 -139Q46.7 -136.2 46.6 -133.4Q46.4 -130.7 47.5 -128.6Q48.6 -126.4 51.4 -125.2Q52.9 -124.6 54.5 -124.7Q56 -124.7 57.3 -125.6Q58.6 -126.5 59.4 -128.5Q60.2 -130.3 59.9 -132Q59.6 -133.7 58.6 -135.5Q57.5 -137.4 56 -139.5Q54.5 -141.6 53.2 -143.7Q51.9 -145.8 51.6 -148Q51.2 -150.3 52.2 -152.7Q53.3 -155.4 55.3 -156.6Q57.3 -157.8 59.7 -157.8Q62 -157.8 64.3 -156.9Z"/>
    <path d="M127.7 -111.3Q126.3 -110.1 125 -109Q123.8 -107.8 123.1 -107.2Q122.5 -106.6 121.9 -105.9Q121.4 -105.3 121 -104.9L120.3 -105.7Q122.2 -108.1 123 -109.9Q123.7 -111.6 123.3 -113.1Q122.8 -114.6 121.1 -116.3L118.8 -118.7Q117.7 -119.8 116.9 -120.1Q116.2 -120.5 115.4 -120.2Q114.7 -119.8 113.5 -118.6L96.4 -101.5Q95.2 -100.3 94.8 -99.5Q94.4 -98.8 94.8 -98Q95.2 -97.3 96.3 -96.2L98.5 -94Q100.4 -92 102.2 -91.5Q103.9 -91 105.9 -91.8Q107.9 -92.6 110.6 -94.7L111.4 -93.9Q110.3 -93 108.7 -91.4Q108 -90.7 106.8 -89.4Q105.6 -88.1 104.3 -86.6Q102.7 -88.4 100.5 -90.6Q98.4 -92.8 96.7 -94.5Q95.9 -95.2 94.7 -96.5Q93.4 -97.7 92 -99.1Q90.6 -100.5 89.1 -101.9Q87.6 -103.3 86.3 -104.6L87 -105.3Q88.2 -104.2 89 -103.8Q89.8 -103.5 90.6 -103.9Q91.4 -104.3 92.6 -105.5L109.4 -122.4Q110.7 -123.6 111.1 -124.4Q111.5 -125.2 111.1 -126Q110.8 -126.8 109.7 -128L110.4 -128.6Q111.6 -127.3 113.1 -125.8Q114.5 -124.4 115.9 -122.9Q117.3 -121.5 118.5 -120.3Q119.7 -119.1 120.5 -118.3Q122.1 -116.7 124.1 -114.8Q126.1 -112.8 127.7 -111.3ZM110.4 -105.3Q110.4 -105.3 110.1 -105Q109.8 -104.7 109.8 -104.7L103.6 -110.8Q103.6 -110.8 104 -111.1Q104.3 -111.5 104.3 -111.5ZM115.9 -108.8Q113.8 -107 112.8 -106Q111.8 -105 111 -104.1Q110.1 -103.3 109.1 -102.2Q108.2 -101.2 106.4 -99.1L105.6 -99.9Q106.5 -101.1 107.3 -102.5Q108.1 -103.8 108 -105.1Q108 -106.5 106.5 -107.9L107.2 -108.6Q108.3 -107.5 109.4 -107.3Q110.4 -107.1 111.5 -107.5Q112.5 -107.9 113.4 -108.5Q114.4 -109.1 115.1 -109.6ZM130.4 -123.6Q131.5 -123.3 132.1 -122.5Q132.6 -121.7 132.3 -120.9Q132.1 -120.1 131.3 -119.6Q130.6 -119.2 129.4 -119.5Q128.2 -119.8 127 -120.4Q125.7 -121 124 -121.8Q122.4 -122.7 119.7 -123.6L119.9 -124.3Q122.7 -124 124.6 -123.9Q126.5 -123.9 127.9 -123.9Q129.3 -123.9 130.4 -123.6Z"/>
    <path d="M156.4 -63.9 155.5 -63.6Q154.9 -65.1 154.3 -65.7Q153.7 -66.4 152.8 -66.3Q151.9 -66.3 150.2 -65.6L128.1 -56.4Q126.5 -55.8 125.9 -55.2Q125.2 -54.6 125.3 -53.8Q125.4 -53 125.9 -51.6L127.1 -48.7Q127.9 -46.8 129 -45.7Q130.1 -44.7 131.5 -44.2Q132.9 -43.8 134.8 -44Q136.7 -44.2 139.1 -44.9L139.5 -43.8Q138 -43.4 135.7 -42.4Q134.8 -42 133.1 -41.3Q131.5 -40.5 129.7 -39.6Q128.9 -41.9 127.7 -44.7Q126.6 -47.6 125.7 -49.8Q125.2 -50.8 124.6 -52.4Q123.9 -54 123.1 -55.8Q122.3 -57.7 121.5 -59.6Q120.7 -61.5 120 -63.1L120.9 -63.5Q121.6 -62.1 122.1 -61.4Q122.7 -60.8 123.6 -60.8Q124.5 -60.9 126.1 -61.6L148.1 -70.7Q149.8 -71.4 150.4 -72Q151.1 -72.5 151.1 -73.4Q151.1 -74.3 150.5 -75.8L151.4 -76.1Q151.8 -75.1 152.4 -73.5Q153 -71.8 153.8 -70Q154.5 -68.3 155.2 -66.7Q155.9 -65 156.4 -63.9Z"/>
    <path d="M169 11.6Q167.2 11.4 165.5 11.3Q163.7 11.3 162.9 11.3Q162 11.3 161.1 11.3Q160.3 11.4 159.8 11.4V10.3Q162.8 10 164.6 9.3Q166.4 8.6 167.2 7.2Q167.9 5.8 167.9 3.4V0.1Q167.9 -1.5 167.6 -2.3Q167.4 -3.1 166.6 -3.3Q165.8 -3.6 164.1 -3.6H139.9Q138.3 -3.6 137.4 -3.3Q136.6 -3.1 136.4 -2.3Q136.1 -1.5 136.1 0.1V3.2Q136.1 5.9 137 7.5Q137.8 9.1 139.8 10Q141.8 10.8 145.2 11.3V12.4Q143.8 12.2 141.5 12.2Q140.6 12.2 138.8 12.3Q136.9 12.4 135 12.6Q135.1 10.1 135.1 7Q135.1 4 135.1 1.6Q135.1 0.5 135.1 -1.3Q135.1 -3 135.1 -5Q135.1 -7 135.1 -9Q135 -11.1 135 -12.9H136Q136.1 -11.3 136.3 -10.5Q136.6 -9.7 137.5 -9.4Q138.4 -9.1 140.1 -9.1H163.9Q165.7 -9.1 166.5 -9.4Q167.4 -9.7 167.7 -10.5Q168 -11.3 168 -12.9H169Q169 -11.1 168.9 -9Q168.9 -7 168.9 -5Q168.9 -3 168.9 -1.3Q168.9 0.5 168.9 1.6Q168.9 3.8 168.9 6.6Q168.9 9.4 169 11.6ZM152.6 3.6Q152.6 3.6 152.1 3.6Q151.6 3.6 151.6 3.6V-5.1Q151.6 -5.1 152.1 -5.1Q152.6 -5.1 152.6 -5.1ZM158.9 5Q156.2 4.8 154.7 4.8Q153.3 4.9 152.1 4.9Q150.9 4.9 149.5 4.9Q148 4.9 145.3 5.1V4Q146.9 3.8 148.3 3.4Q149.8 3 150.7 2.1Q151.6 1.1 151.6 -1H152.6Q152.6 0.5 153.2 1.4Q153.8 2.3 154.8 2.8Q155.8 3.3 156.9 3.5Q158 3.7 158.9 3.9Z"/>
    <path d="M156.9 64.3Q155.9 66.7 154.9 67.7Q153.8 68.8 152.8 69.4Q152.3 69.8 152 70.1Q151.7 70.4 151.6 70.7Q151.4 71.1 151.8 71.5Q152.2 71.9 153.1 72.5L152.7 73.5Q151.9 73.1 150.9 72.6Q149.8 72.1 148 71.3Q146.3 70.6 143.4 69.4L143.8 68.3Q146.1 69.1 148.4 69.1Q150.8 69.1 152.7 68.1Q154.7 67.1 155.7 64.6Q156.6 62.4 155.9 60.3Q155.2 58.3 152.9 57.4Q151 56.6 149.3 57Q147.5 57.4 145.7 58.7Q143.9 59.9 141.6 61.5Q139.3 63.1 137.1 64.3Q135 65.5 132.9 65.8Q130.8 66.2 128.4 65.2Q125.5 64 124.2 61.8Q122.9 59.7 122.9 57.1Q122.9 54.4 124 51.7Q125 49.2 126.1 48Q127.3 46.7 128.3 46Q129.3 45.2 129.5 44.7Q129.7 44.3 129.3 43.9Q128.9 43.5 128 42.9L128.4 41.9Q129.3 42.4 130.7 43Q132 43.5 134.1 44.4Q136.2 45.3 139.4 46.7L139 47.7Q136.2 46.7 133.4 46.6Q130.7 46.4 128.6 47.5Q126.4 48.6 125.2 51.4Q124.6 52.9 124.7 54.5Q124.7 56 125.6 57.3Q126.5 58.6 128.5 59.4Q130.3 60.2 132 59.9Q133.7 59.6 135.5 58.6Q137.4 57.5 139.5 56Q141.6 54.5 143.7 53.2Q145.8 51.9 148 51.6Q150.3 51.2 152.7 52.2Q155.4 53.3 156.6 55.3Q157.8 57.3 157.8 59.7Q157.8 62 156.9 64.3Z"/>
    <path d="M120.3 119.5Q118.5 121.3 117.2 121.8Q115.8 122.4 114.6 122.6Q114 122.8 113.6 122.9Q113.2 123.1 113 123.3Q112.6 123.6 112.9 124.2Q113.1 124.7 113.7 125.5L113 126.3Q112.4 125.7 111.6 124.8Q110.8 123.9 109.5 122.6Q108.1 121.2 105.9 119L106.7 118.2Q108.5 119.7 110.7 120.7Q112.9 121.6 115 121.4Q117.2 121.2 119.1 119.3Q120.8 117.6 120.9 115.4Q121 113.2 119.3 111.5Q117.8 110 116.1 109.8Q114.3 109.5 112.2 110Q110 110.4 107.3 111Q104.5 111.6 102.1 111.9Q99.7 112.2 97.6 111.7Q95.5 111.2 93.6 109.3Q91.5 107.1 91.1 104.7Q90.7 102.2 91.7 99.7Q92.7 97.3 94.7 95.2Q96.7 93.3 98.2 92.6Q99.7 91.9 100.9 91.6Q102.2 91.3 102.6 90.9Q102.9 90.5 102.7 90Q102.5 89.5 101.8 88.6L102.6 87.8Q103.3 88.7 104.3 89.7Q105.3 90.7 106.9 92.4Q108.5 94 110.9 96.5L110.2 97.3Q107.9 95.3 105.5 94.1Q103 92.9 100.6 93.1Q98.2 93.3 96 95.5Q94.9 96.6 94.3 98Q93.8 99.5 94.1 101Q94.5 102.6 95.9 104.1Q97.3 105.5 99 105.9Q100.7 106.2 102.8 106Q104.9 105.7 107.4 105.1Q110 104.5 112.4 104.1Q114.9 103.8 117 104.3Q119.2 104.8 121.1 106.7Q123.2 108.8 123.5 111Q123.9 113.3 123 115.5Q122.1 117.7 120.3 119.5Z"/>
    <path d="M57.9 139.8Q56.6 140.4 55.3 139.9Q54.1 139.4 53.5 138.1Q53 136.8 53.5 135.6Q54.1 134.3 55.4 133.8Q56.8 133.2 58 133.7Q59.3 134.2 59.8 135.5Q60.4 136.8 59.8 138Q59.3 139.3 57.9 139.8Z"/>
    <path d="M-15.3 169V168Q-13.7 167.9 -12.9 167.5Q-12 167 -11.8 165.9Q-11.5 164.8 -11.5 162.9V149Q-11.5 145.7 -11.1 143.2Q-10.6 140.6 -9.5 138.8Q-8.3 136.8 -6 135.5Q-3.6 134.3 -0.4 134.3Q1.9 134.3 4 134.9Q6.2 135.4 7.8 136.9Q9.3 138.2 10.1 139.7Q10.9 141.3 11.2 143.4Q11.5 145.6 11.5 148.8V163.9Q11.5 165.7 11.8 166.5Q12 167.4 12.8 167.7Q13.7 168 15.3 168V169Q14.2 169 12.4 168.9Q10.7 168.9 8.7 168.9Q6.8 168.9 5 168.9Q3.2 169 2.1 169V168Q3.7 168 4.5 167.7Q5.4 167.4 5.7 166.5Q6 165.7 6 163.9V147.3Q6 144.8 5.7 142.8Q5.4 140.7 4.7 139.2Q3.9 137.7 2.5 136.8Q1 136 -1.3 136Q-4.9 136 -6.8 137.6Q-8.8 139.2 -9.6 142Q-10.4 144.9 -10.4 148.4V162.7Q-10.4 164.7 -10 165.8Q-9.6 166.9 -8.6 167.4Q-7.7 167.9 -5.9 168V169Q-6.8 169 -8.2 168.9Q-9.7 168.9 -10.9 168.9Q-12.1 168.9 -13.3 168.9Q-14.5 169 -15.3 169Z"/>
    <path d="M-64.3 156.9Q-66.7 155.9 -67.7 154.9Q-68.8 153.8 -69.4 152.8Q-69.8 152.3 -70.1 152Q-70.4 151.7 -70.7 151.6Q-71.1 151.4 -71.5 151.8Q-71.9 152.2 -72.5 153.1L-73.5 152.7Q-73.1 151.9 -72.6 150.9Q-72.1 149.8 -71.3 148Q-70.6 146.3 -69.4 143.4L-68.3 143.8Q-69.1 146.1 -69.1 148.4Q-69.1 150.8 -68.1 152.7Q-67.1 154.7 -64.6 155.7Q-62.4 156.6 -60.3 155.9Q-58.3 155.2 -57.4 152.9Q-56.6 151 -57 149.3Q-57.4 147.5 -58.7 145.7Q-59.9 143.9 -61.5 141.6Q-63.1 139.3 -64.3 137.1Q-65.5 135 -65.8 132.9Q-66.2 130.8 -65.2 128.4Q-64 125.5 -61.8 124.2Q-59.7 122.9 -57.1 122.9Q-54.4 122.9 -51.7 124Q-49.2 125 -48 126.1Q-46.7 127.3 -46 128.3Q-45.2 129.3 -44.7 129.5Q-44.3 129.7 -43.9 129.3Q-43.5 128.9 -42.9 128L-41.9 128.4Q-42.4 129.3 -43 130.7Q-43.5 132 -44.4 134.1Q-45.3 136.2 -46.7 139.4L-47.7 139Q-46.7 136.2 -46.6 133.4Q-46.4 130.7 -47.5 128.6Q-48.6 126.4 -51.4 125.2Q-52.9 124.6 -54.5 124.7Q-56 124.7 -57.3 125.6Q-58.6 126.5 -59.4 128.5Q-60.2 130.3 -59.9 132Q-59.6 133.7 -58.6 135.5Q-57.5 137.4 -56 139.5Q-54.5 141.6 -53.2 143.7Q-51.9 145.8 -51.6 148Q-51.2 150.3 -52.2 152.7Q-53.3 155.4 -55.3 156.6Q-57.3 157.8 -59.7 157.8Q-62 157.8 -64.3 156.9Z"/>
    <path d="M-127.7 111.3Q-126.3 110.1 -125 109Q-123.8 107.8 -123.1 107.2Q-122.5 106.6 -121.9 105.9Q-121.4 105.3 -121 104.9L-120.3 105.7Q-122.2 108.1 -123 109.9Q-123.7 111.6 -123.3 113.1Q-122.8 114.6 -121.1 116.3L-118.8 118.7Q-117.7 119.8 -116.9 120.1Q-116.2 120.5 -115.4 120.2Q-114.7 119.8 -113.5 118.6L-96.4 101.5Q-95.2 100.3 -94.8 99.5Q-94.4 98.8 -94.8 98Q-95.2 97.3 -96.3 96.2L-98.5 94Q-100.4 92 -102.2 91.5Q-103.9 91 -105.9 91.8Q-107.9 92.6 -110.6 94.7L-111.4 93.9Q-110.3 93 -108.7 91.4Q-108 90.7 -106.8 89.4Q-105.6 88.1 -104.3 86.6Q-102.7 88.4 -100.5 90.6Q-98.4 92.8 -96.7 94.5Q-95.9 95.2 -94.7 96.5Q-93.4 97.7 -92 99.1Q-90.6 100.5 -89.1 101.9Q-87.6 103.3 -86.3 104.6L-87 105.3Q-88.2 104.2 -89 103.8Q-89.8 103.5 -90.6 103.9Q-91.4 104.3 -92.6 105.5L-109.4 122.4Q-110.7 123.6 -111.1 124.4Q-111.5 125.2 -111.1 126Q-110.8 126.8 -109.7 128L-110.4 128.6Q-111.6 127.3 -113.1 125.8Q-114.5 124.4 -115.9 122.9Q-117.3 121.5 -118.5 120.3Q-119.7 119.1 -120.5 118.3Q-122.1 116.7 -124.1 114.8Q-126.1 112.8 -127.7 111.3ZM-110.4 105.3Q-110.4 105.3 -110.1 105Q-109.8 104.7 -109.8 104.7L-103.6 110.8Q-103.6 110.8 -104 111.1Q-104.3 111.5 -104.3 111.5ZM-115.9 108.8Q-113.8 107 -112.8 106Q-111.8 105 -111 104.1Q-110.1 103.3 -109.1 102.2Q-108.2 101.2 -106.4 99.1L-105.6 99.9Q-106.5 101.1 -107.3 102.5Q-108.1 103.8 -108 105.1Q-108 106.5 -106.5 107.9L-107.2 108.6Q-108.3 107.5 -109.4 107.3Q-110.4 107.1 -111.5 107.5Q-112.5 107.9 -113.4 108.5Q-114.4 109.1 -115.1 109.6ZM-130.4 123.6Q-131.5 123.3 -132.1 122.5Q-132.6 121.7 -132.3 120.9Q-132.1 120.1 -131.3 119.6Q-130.6 119.2 -129.4 119.5Q-128.2 119.8 -127 120.4Q-125.7 121 -124 121.8Q-122.4 122.7 -119.7 123.6L-119.9 124.3Q-122.7 124 -124.6 123.9Q-126.5 123.9 -127.9 123.9Q-129.3 123.9 -130.4 123.6Z"/>
    <path d="M-156.4 63.9 -155.5 63.6Q-154.9 65.1 -154.3 65.7Q-153.7 66.4 -152.8 66.3Q-151.9 66.3 -150.2 65.6L-128.1 56.4Q-126.5 55.8 -125.9 55.2Q-125.2 54.6 -125.3 53.8Q-125.4 53 -125.9 51.6L-127.1 48.7Q-127.9 46.8 -129 45.7Q-130.1 44.7 -131.5 44.2Q-132.9 43.8 -134.8 44Q-136.7 44.2 -139.1 44.9L-139.5 43.8Q-138 43.4 -135.7 42.4Q-134.8 42 -133.1 41.3Q-131.5 40.5 -129.7 39.6Q-128.9 41.9 -127.7 44.7Q-126.6 47.6 -125.7 49.8Q-125.2 50.8 -124.6 52.4Q-123.9 54 -123.1 55.8Q-122.3 57.7 -121.5 59.6Q-120.7 61.5 -120 63.1L-120.9 63.5Q-121.6 62.1 -122.1 61.4Q-122.7 60.8 -123.6 60.8Q-124.5 60.9 -126.1 61.6L-148.1 70.7Q-149.8 71.4 -150.4 72Q-151.1 72.5 -151.1 73.4Q-151.1 74.3 -150.5 75.8L-151.4 76.1Q-151.8 75.1 -152.4 73.5Q-153 71.8 -153.8 70Q-154.5 68.3 -155.2 66.7Q-155.9 65 -156.4 63.9Z"/>
    <path d="M-169 -11.6Q-167.2 -11.4 -165.5 -11.3Q-163.7 -11.3 -162.9 -11.3Q-162 -11.3 -161.1 -11.3Q-160.3 -11.4 -159.8 -11.4V-10.3Q-162.8 -10 -164.6 -9.3Q-166.4 -8.6 -167.2 -7.2Q-167.9 -5.8 -167.9 -3.4V-0.1Q-167.9 1.5 -167.6 2.3Q-167.4 3.1 -166.6 3.3Q-165.8 3.6 -164.1 3.6H-139.9Q-138.3 3.6 -137.4 3.3Q-136.6 3.1 -136.4 2.3Q-136.1 1.5 -136.1 -0.1V-3.2Q-136.1 -5.9 -137 -7.5Q-137.8 -9.1 -139.8 -10Q-141.8 -10.8 -145.2 -11.3V-12.4Q-143.8 -12.2 -141.5 -12.2Q-140.6 -12.2 -138.8 -12.3Q-136.9 -12.4 -135 -12.6Q-135.1 -10.1 -135.1 -7Q-135.1 -4 -135.1 -1.6Q-135.1 -0.5 -135.1 1.3Q-135.1 3 -135.1 5Q-135.1 7 -135.1 9Q-135 11.1 -135 12.9H-136Q-136.1 11.3 -136.3 10.5Q-136.6 9.7 -137.5 9.4Q-138.4 9.1 -140.1 9.1H-163.9Q-165.7 9.1 -166.5 9.4Q-167.4 9.7 -167.7 10.5Q-168 11.3 -168 12.9H-169Q-169 11.1 -168.9 9Q-168.9 7 -168.9 5Q-168.9 3 -168.9 1.3Q-168.9 -0.5 -168.9 -1.6Q-168.9 -3.8 -168.9 -6.6Q-168.9 -9.4 -169 -11.6ZM-152.6 -3.6Q-152.6 -3.6 -152.1 -3.6Q-151.6 -3.6 -151.6 -3.6V5.1Q-151.6 5.1 -152.1 5.1Q-152.6 5.1 -152.6 5.1ZM-158.9 -5Q-156.2 -4.8 -154.7 -4.8Q-153.3 -4.9 -152.1 -4.9Q-150.9 -4.9 -149.5 -4.9Q-148 -4.9 -145.3 -5.1V-4Q-146.9 -3.8 -148.3 -3.4Q-149.8 -3 -150.7 -2.1Q-151.6 -1.1 -151.6 1H-152.6Q-152.6 -0.5 -153.2 -1.4Q-153.8 -2.3 -154.8 -2.8Q-155.8 -3.3 -156.9 -3.5Q-158 -3.7 -158.9 -3.9Z"/>
    <path d="M-156.9 -64.3Q-155.9 -66.7 -154.9 -67.7Q-153.8 -68.8 -152.8 -69.4Q-152.3 -69.8 -152 -70.1Q-151.7 -70.4 -151.6 -70.7Q-151.4 -71.1 -151.8 -71.5Q-152.2 -71.9 -153.1 -72.5L-152.7 -73.5Q-151.9 -73.1 -150.9 -72.6Q-149.8 -72.1 -148 -71.3Q-146.3 -70.6 -143.4 -69.4L-143.8 -68.3Q-146.1 -69.1 -148.4 -69.1Q-150.8 -69.1 -152.7 -68.1Q-154.7 -67.1 -155.7 -64.6Q-156.6 -62.4 -155.9 -60.3Q-155.2 -58.3 -152.9 -57.4Q-151 -56.6 -149.3 -57Q-147.5 -57.4 -145.7 -58.7Q-143.9 -59.9 -141.6 -61.5Q-139.3 -63.1 -137.1 -64.3Q-135 -65.5 -132.9 -65.8Q-130.8 -66.2 -128.4 -65.2Q-125.5 -64 -124.2 -61.8Q-122.9 -59.7 -122.9 -57.1Q-122.9 -54.4 -124 -51.7Q-125 -49.2 -126.1 -48Q-127.3 -46.7 -128.3 -46Q-129.3 -45.2 -129.5 -44.7Q-129.7 -44.3 -129.3 -43.9Q-128.9 -43.5 -128 -42.9L-128.4 -41.9Q-129.3 -42.4 -130.7 -43Q-132 -43.5 -134.1 -44.4Q-136.2 -45.3 -139.4 -46.7L-139 -47.7Q-136.2 -46.7 -133.4 -46.6Q-130.7 -46.4 -128.6 -47.5Q-126.4 -48.6 -125.2 -51.4Q-124.6 -52.9 -124.7 -54.5Q-124.7 -56 -125.6 -57.3Q-126.5 -58.6 -128.5 -59.4Q-130.3 -60.2 -132 -59.9Q-133.7 -59.6 -135.5 -58.6Q-137.4 -57.5 -139.5 -56Q-141.6 -54.5 -143.7 -53.2Q-145.8 -51.9 -148 -51.6Q-150.3 -51.2 -152.7 -52.2Q-155.4 -53.3 -156.6 -55.3Q-157.8 -57.3 -157.8 -59.7Q-157.8 -62 -156.9 -64.3Z"/>
    <path d="M-120.3 -119.5Q-118.5 -121.3 -117.2 -121.8Q-115.8 -122.4 -114.6 -122.6Q-114 -122.8 -113.6 -122.9Q-113.2 -123.1 -113 -123.3Q-112.6 -123.6 -112.9 -124.2Q-113.1 -124.7 -113.7 -125.5L-113 -126.3Q-112.4 -125.7 -111.6 -124.8Q-110.8 -123.9 -109.5 -122.6Q-108.1 -121.2 -105.9 -119L-106.7 -118.2Q-108.5 -119.7 -110.7 -120.7Q-112.9 -121.6 -115 -121.4Q-117.2 -121.2 -119.1 -119.3Q-120.8 -117.6 -120.9 -115.4Q-121 -113.2 -119.3 -111.5Q-117.8 -110 -116.1 -109.8Q-114.3 -109.5 -112.2 -110Q-110 -110.4 -107.3 -111Q-104.5 -111.6 -102.1 -111.9Q-99.7 -112.2 -97.6 -111.7Q-95.5 -111.2 -93.6 -109.3Q-91.5 -107.1 -91.1 -104.7Q-90.7 -102.2 -91.7 -99.7Q-92.7 -97.3 -94.7 -95.2Q-96.7 -93.3 -98.2 -92.6Q-99.7 -91.9 -100.9 -91.6Q-102.2 -91.3 -102.6 -90.9Q-102.9 -90.5 -102.7 -90Q-102.5 -89.5 -101.8 -88.6L-102.6 -87.8Q-103.3 -88.7 -104.3 -89.7Q-105.3 -90.7 -106.9 -92.4Q-108.5 -94 -110.9 -96.5L-110.2 -97.3Q-107.9 -95.3 -105.5 -94.1Q-103 -92.9 -100.6 -93.1Q-98.2 -93.3 -96 -95.5Q-94.9 -96.6 -94.3 -98Q-93.8 -99.5 -94.1 -101Q-94.5 -102.6 -95.9 -104.1Q-97.3 -105.5 -99 -105.9Q-100.7 -106.2 -102.8 -106Q-104.9 -105.7 -107.4 -105.1Q-110 -104.5 -112.4 -104.1Q-114.9 -103.8 -117 -104.3Q-119.2 -104.8 -121.1 -106.7Q-123.2 -108.8 -123.5 -111Q-123.9 -113.3 -123 -115.5Q-122.1 -117.7 -120.3 -119.5Z"/>
    <path d="M-57.9 -139.8Q-56.6 -140.4 -55.3 -139.9Q-54.1 -139.4 -53.5 -138.1Q-53 -136.8 -53.5 -135.6Q-54.1 -134.3 -55.4 -133.8Q-56.8 -133.2 -58 -133.7Q-59.3 -134.2 -59.8 -135.5Q-60.4 -136.8 -59.8 -138Q-59.3 -139.3 -57.9 -139.8Z"/>
  </g>
</svg>
