<svg xmlns="http://www.w3.org/2000/svg" viewBox="0 0 1200 1600" role="img" aria-labelledby="title desc">
  <title id="title">여름밤 한강 리드 디퓨저 200ml</title>
  <desc id="desc">투명 사각 유리병과 블랙 리드 스틱 8가닥, 한강 물결과 다리 불빛 무드의 흑백 제품컷</desc>
  <defs>
    <linearGradient id="glass" x1="0" x2="1">
      <stop offset="0" stop-color="#f8f8f8"/>
      <stop offset="0.22" stop-color="#d5d5d5"/>
      <stop offset="0.5" stop-color="#fff"/>
      <stop offset="0.76" stop-color="#c8c8c8"/>
      <stop offset="1" stop-color="#f4f4f4"/>
    </linearGradient>
    <radialGradient id="shadow" cx="50%" cy="50%" r="50%">
      <stop offset="0" stop-color="#111" stop-opacity=".25"/>
      <stop offset="1" stop-color="#111" stop-opacity="0"/>
    </radialGradient>
    <filter id="blur"><feGaussianBlur stdDeviation="5"/></filter>
  </defs>
  <rect width="1200" height="1600" fill="#fff"/>
  <rect y="1018" width="1200" height="582" fill="#f7f7f7"/>
  <g stroke="#d9d9d9" stroke-width="5" fill="none" opacity=".85">
    <path d="M104 1080c85 35 165 35 240 0s155-35 240 0 165 35 240 0 155-35 272-2"/>
    <path d="M40 1160c92 34 174 34 246 0s151-34 237 0 168 34 246 0 164-34 340 0"/>
    <path d="M86 1242c82 28 162 28 240 0s157-28 237 0 158 28 240 0 164-28 312 0"/>
  </g>
  <g opacity=".22" filter="url(#blur)">
    <circle cx="256" cy="318" r="20" fill="#111"/>
    <circle cx="390" cy="292" r="14" fill="#111"/>
    <circle cx="812" cy="342" r="22" fill="#111"/>
    <circle cx="946" cy="304" r="12" fill="#111"/>
  </g>
  <path d="M132 394c229-72 479-70 754 6" fill="none" stroke="#111" stroke-opacity=".16" stroke-width="8"/>
  <ellipse cx="600" cy="1216" rx="272" ry="74" fill="url(#shadow)"/>
  <g stroke="#111" stroke-linecap="round" stroke-width="17">
    <line x1="478" y1="238" x2="562" y2="780"/>
    <line x1="526" y1="208" x2="582" y2="780"/>
    <line x1="576" y1="184" x2="600" y2="782"/>
    <line x1="626" y1="190" x2="615" y2="782"/>
    <line x1="676" y1="216" x2="635" y2="780"/>
    <line x1="722" y1="254" x2="654" y2="780"/>
    <line x1="436" y1="290" x2="545" y2="782"/>
    <line x1="764" y1="302" x2="672" y2="782"/>
  </g>
  <g>
    <rect x="462" y="688" width="276" height="78" rx="12" fill="#111"/>
    <path d="M420 760h360l-42 405c-7 68-43 102-111 102h-54c-68 0-104-34-111-102z" fill="url(#glass)" stroke="#111" stroke-width="8"/>
    <path d="M492 786h216l-25 354c-5 50-30 74-75 74h-16c-45 0-70-24-75-74z" fill="#fff" opacity=".34"/>
    <rect x="524" y="898" width="152" height="130" rx="3" fill="#fff" opacity=".55" stroke="#111" stroke-opacity=".18"/>
  </g>
</svg>
