<svg xmlns="http://www.w3.org/2000/svg" viewBox="0 0 1200 1600" role="img" aria-labelledby="title desc">
  <title id="title">호텔 블랭킷 리드 디퓨저 200ml</title>
  <desc id="desc">투명 사각 유리병과 블랙 리드 스틱 8가닥, 호텔 침구 무드의 흑백 제품컷</desc>
  <defs>
    <linearGradient id="glass" x1="0" x2="1">
      <stop offset="0" stop-color="#f6f6f6"/>
      <stop offset="0.22" stop-color="#d9d9d9"/>
      <stop offset="0.5" stop-color="#ffffff"/>
      <stop offset="0.76" stop-color="#cfcfcf"/>
      <stop offset="1" stop-color="#f3f3f3"/>
    </linearGradient>
    <radialGradient id="shadow" cx="50%" cy="50%" r="50%">
      <stop offset="0" stop-color="#111" stop-opacity=".24"/>
      <stop offset="1" stop-color="#111" stop-opacity="0"/>
    </radialGradient>
  </defs>
  <rect width="1200" height="1600" fill="#fff"/>
  <path d="M115 1125c220-86 360-34 520-8 155 25 274-42 447-18v245H115z" fill="#f7f7f7"/>
  <path d="M110 1137c226-80 378-18 529 4 151 23 279-48 451-20" fill="none" stroke="#dedede" stroke-width="10"/>
  <path d="M128 1205c197-42 330 11 504 20 177 9 290-52 448-22" fill="none" stroke="#e8e8e8" stroke-width="7"/>
  <ellipse cx="600" cy="1210" rx="265" ry="72" fill="url(#shadow)"/>
  <g stroke="#111" stroke-linecap="round" stroke-width="17">
    <line x1="478" y1="235" x2="562" y2="780"/>
    <line x1="525" y1="205" x2="582" y2="780"/>
    <line x1="575" y1="182" x2="600" y2="782"/>
    <line x1="625" y1="190" x2="615" y2="782"/>
    <line x1="675" y1="214" x2="635" y2="780"/>
    <line x1="720" y1="250" x2="654" y2="780"/>
    <line x1="436" y1="284" x2="545" y2="782"/>
    <line x1="764" y1="302" x2="672" y2="782"/>
  </g>
  <g>
    <rect x="462" y="688" width="276" height="78" rx="12" fill="#111"/>
    <path d="M420 760h360l-42 405c-7 68-43 102-111 102h-54c-68 0-104-34-111-102z" fill="url(#glass)" stroke="#111" stroke-width="8"/>
    <path d="M492 786h216l-25 354c-5 50-30 74-75 74h-16c-45 0-70-24-75-74z" fill="#fff" opacity=".35"/>
    <path d="M451 861h298" stroke="#111" stroke-width="2" opacity=".14"/>
    <path d="M456 1068h288" stroke="#111" stroke-width="2" opacity=".14"/>
    <rect x="524" y="898" width="152" height="130" rx="3" fill="#fff" opacity=".58" stroke="#111" stroke-opacity=".18"/>
  </g>
  <g fill="none" stroke="#d0d0d0" stroke-width="3" opacity=".7">
    <path d="M214 1020c84-22 158-22 221 0"/>
    <path d="M746 1016c84-24 160-24 228 0"/>
    <path d="M272 1082c88-19 171-16 249 10"/>
  </g>
</svg>
