<svg xmlns="http://www.w3.org/2000/svg" viewBox="-176.80 -142.09 348.47 342.73">
  <title>USÉLESS SEOUL — 03 락업 (BodoniModa)</title>
  <g fill="currentColor">
    <path d="M-43.56666666666666 -100.0V-99.73333333333333H-56.766666666666666V-30.666666666666668Q-56.766666666666666 -14.2 -63.63333333333333 -6.1Q-70.5 2.0 -86.3 2.0Q-103.56666666666666 2.0 -111.6 -5.7Q-119.63333333333333 -13.4 -119.63333333333333 -30.666666666666668V-99.73333333333333H-131.56666666666666V-100.0H-93.56666666666666V-99.73333333333333H-106.9V-32.0Q-106.9 -25.4 -105.93333333333334 -19.4Q-104.96666666666667 -13.4 -102.46666666666667 -8.733333333333334Q-99.96666666666667 -4.066666666666666 -95.4 -1.3666666666666667Q-90.83333333333333 1.3333333333333333 -83.63333333333333 1.3333333333333333Q-74.69999999999999 1.3333333333333333 -68.8 -2.166666666666667Q-62.900000000000006 -5.666666666666667 -59.96666666666667 -12.766666666666667Q-57.03333333333333 -19.866666666666667 -57.03333333333333 -30.666666666666668V-99.73333333333333H-69.63333333333333V-100.0Z"/>
    <path d="M7.299999999999997 2.0Q-1.7000000000000028 2.0 -7.8000000000000025 -0.8Q-13.900000000000002 -3.6 -17.833333333333336 -8.4L-25.1 1.3333333333333333H-25.366666666666667V-26.0H-25.1Q-23.96666666666667 -20.066666666666666 -21.633333333333333 -15.033333333333333Q-19.3 -10.0 -15.533333333333335 -6.266666666666667Q-11.76666666666667 -2.533333333333333 -6.400000000000002 -0.46666666666666656Q-1.033333333333335 1.6 6.233333333333334 1.6Q13.299999999999997 1.6 18.63333333333333 -0.9333333333333333Q23.96666666666666 -3.466666666666667 26.96666666666666 -8.433333333333334Q29.96666666666666 -13.4 29.96666666666666 -20.666666666666668Q29.96666666666666 -26.53333333333333 27.03333333333333 -30.599999999999998Q24.1 -34.666666666666664 19.3 -37.666666666666664Q14.5 -40.666666666666664 8.733333333333334 -43.266666666666666Q2.9666666666666686 -45.86666666666667 -2.799999999999999 -48.66666666666667Q-8.566666666666666 -51.46666666666667 -13.366666666666667 -55.16666666666667Q-18.166666666666668 -58.86666666666667 -21.1 -64.06666666666666Q-24.033333333333335 -69.26666666666667 -24.033333333333335 -76.66666666666667Q-24.033333333333335 -84.0 -20.200000000000003 -89.56666666666666Q-16.366666666666667 -95.13333333333333 -10.100000000000001 -98.23333333333332Q-3.8333333333333357 -101.33333333333333 3.566666666666663 -101.33333333333333Q10.366666666666667 -101.33333333333333 15.833333333333332 -99.19999999999999Q21.299999999999997 -97.06666666666666 25.166666666666664 -92.53333333333333L32.36666666666667 -101.33333333333333H32.63333333333333V-74.0H32.36666666666667Q31.03333333333333 -83.26666666666667 27.266666666666666 -89.19999999999999Q23.5 -95.13333333333333 17.766666666666666 -97.96666666666667Q12.033333333333331 -100.8 4.899999999999999 -100.8Q-4.700000000000003 -100.8 -9.700000000000003 -96.03333333333333Q-14.700000000000003 -91.26666666666667 -14.700000000000003 -83.33333333333333Q-14.700000000000003 -78.06666666666666 -11.833333333333336 -74.36666666666667Q-8.966666666666669 -70.66666666666667 -4.3000000000000025 -67.83333333333334Q0.3666666666666636 -65.0 5.999999999999998 -62.43333333333334Q11.633333333333333 -59.86666666666667 17.266666666666666 -56.9Q22.9 -53.93333333333333 27.566666666666666 -49.93333333333333Q32.233333333333334 -45.93333333333333 35.1 -40.3Q37.96666666666667 -34.666666666666664 37.96666666666667 -26.666666666666668Q37.96666666666667 -18.0 34.233333333333334 -11.566666666666666Q30.5 -5.133333333333333 23.599999999999998 -1.5666666666666664Q16.699999999999996 2.0 7.299999999999997 2.0Z"/>
    <path d="M54.03333333333333 0.0V-0.26666666666666666H65.96666666666667V-99.73333333333333H54.03333333333333V-100.0H123.96666666666667V-72.66666666666667H123.76666666666667Q123.76666666666667 -79.8 121.43333333333334 -85.96666666666667Q119.1 -92.13333333333333 114.13333333333333 -95.93333333333334Q109.16666666666666 -99.73333333333333 101.36666666666666 -99.73333333333333H78.69999999999999V-0.26666666666666666H100.01330409356726Q109.16666666666666 -0.26666666666666666 114.66666666666666 -4.166666666666667Q120.16666666666666 -8.066666666666666 122.63333333333333 -14.799999999999999Q125.1 -21.53333333333333 125.1 -30.0H125.36666666666666V0.0ZM101.1 -37.06666666666666Q101.1 -41.53333333333333 99.1 -44.8Q97.1 -48.06666666666666 93.8 -49.83333333333333Q90.5 -51.6 86.69999999999999 -51.6H73.36666666666666V-51.86666666666667H86.69999999999999Q90.5 -51.86666666666667 93.8 -53.46666666666667Q97.1 -55.06666666666666 99.1 -58.166666666666664Q101.1 -61.266666666666666 101.1 -65.73333333333333H101.36666666666666V-37.06666666666666ZM88.36666666666666 -112.86666666666666 88.23333333333333 -113.06666666666666 100.96666666666667 -128.4Q102.23333333333332 -129.93333333333334 103.73333333333332 -130.06666666666666Q105.23333333333332 -130.2 106.53333333333333 -129.5Q107.83333333333333 -128.8 108.43333333333334 -127.66666666666667Q109.1 -126.6 109.06666666666666 -125.26666666666667Q109.03333333333333 -123.93333333333334 108.4 -122.80000000000001Q107.76666666666667 -121.66666666666667 106.63333333333333 -121.13333333333333Z"/>
    <path d="M-164.79999999999998 126.0V125.73333333333333H-152.86666666666665V26.266666666666666H-164.79999999999998V26.0H-128.2V26.266666666666666H-140.13333333333333V125.73333333333333H-119.53333333333332Q-111.66666666666666 125.73333333333333 -106.73333333333332 123.5Q-101.79999999999998 121.26666666666667 -99.13333333333333 117.23333333333333Q-96.46666666666665 113.2 -95.46666666666665 107.76666666666667Q-94.46666666666665 102.33333333333333 -94.46666666666665 96.0H-94.19999999999999V126.0Z"/>
    <path d="M-78.33333333333331 126.0V125.73333333333333H-66.39999999999998V26.266666666666666H-78.33333333333331V26.0H-8.399999999999977V53.33333333333333H-8.59999999999998Q-8.59999999999998 46.2 -10.933333333333316 40.03333333333334Q-13.266666666666652 33.866666666666674 -18.233333333333317 30.06666666666667Q-23.19999999999998 26.266666666666666 -30.999999999999986 26.266666666666666H-53.66666666666665V125.73333333333333H-32.353362573099396Q-23.19999999999998 125.73333333333333 -17.699999999999985 121.83333333333334Q-12.199999999999989 117.93333333333334 -9.73333333333332 111.2Q-7.2666666666666515 104.46666666666667 -7.2666666666666515 96.0H-6.999999999999986V126.0ZM-31.26666666666665 88.93333333333334Q-31.26666666666665 84.46666666666667 -33.26666666666665 81.2Q-35.26666666666665 77.93333333333334 -38.56666666666665 76.16666666666667Q-41.86666666666665 74.4 -45.66666666666665 74.4H-58.999999999999986V74.13333333333333H-45.66666666666665Q-41.86666666666665 74.13333333333333 -38.56666666666665 72.53333333333333Q-35.26666666666665 70.93333333333334 -33.26666666666665 67.83333333333334Q-31.26666666666665 64.73333333333333 -31.26666666666665 60.266666666666666H-30.999999999999986V88.93333333333334Z"/>
    <path d="M46.20000000000002 128.0Q37.20000000000002 128.0 31.100000000000016 125.2Q25.000000000000018 122.4 21.066666666666684 117.6L13.800000000000018 127.33333333333333H13.533333333333353V100.0H13.800000000000018Q14.933333333333351 105.93333333333334 17.266666666666687 110.96666666666667Q19.60000000000002 116.0 23.366666666666685 119.73333333333333Q27.13333333333335 123.46666666666667 32.50000000000002 125.53333333333333Q37.86666666666669 127.6 45.133333333333354 127.6Q52.20000000000002 127.6 57.533333333333346 125.06666666666666Q62.86666666666668 122.53333333333333 65.86666666666667 117.56666666666666Q68.86666666666667 112.6 68.86666666666667 105.33333333333333Q68.86666666666667 99.46666666666667 65.93333333333335 95.4Q63.00000000000002 91.33333333333334 58.20000000000002 88.33333333333334Q53.40000000000002 85.33333333333334 47.633333333333354 82.73333333333333Q41.86666666666669 80.13333333333333 36.10000000000002 77.33333333333333Q30.333333333333353 74.53333333333333 25.533333333333353 70.83333333333333Q20.733333333333352 67.13333333333333 17.80000000000002 61.93333333333333Q14.866666666666685 56.733333333333334 14.866666666666685 49.33333333333333Q14.866666666666685 42.0 18.700000000000017 36.43333333333334Q22.533333333333353 30.866666666666674 28.80000000000002 27.766666666666673Q35.066666666666684 24.66666666666667 42.46666666666668 24.66666666666667Q49.26666666666669 24.66666666666667 54.73333333333335 26.800000000000004Q60.20000000000002 28.933333333333337 64.06666666666669 33.46666666666667L71.26666666666668 24.66666666666667H71.53333333333336V52.0H71.26666666666668Q69.93333333333335 42.733333333333334 66.16666666666669 36.800000000000004Q62.40000000000002 30.866666666666674 56.666666666666686 28.03333333333334Q50.93333333333335 25.200000000000003 43.80000000000002 25.200000000000003Q34.20000000000002 25.200000000000003 29.200000000000017 29.96666666666667Q24.200000000000017 34.733333333333334 24.200000000000017 42.66666666666667Q24.200000000000017 47.93333333333334 27.066666666666684 51.63333333333333Q29.93333333333335 55.33333333333333 34.600000000000016 58.166666666666664Q39.26666666666668 61.0 44.90000000000002 63.56666666666666Q50.53333333333335 66.13333333333333 56.166666666666686 69.1Q61.80000000000002 72.06666666666666 66.46666666666668 76.06666666666666Q71.13333333333335 80.06666666666666 74.00000000000003 85.7Q76.86666666666669 91.33333333333334 76.86666666666669 99.33333333333333Q76.86666666666669 108.0 73.13333333333335 114.43333333333334Q69.40000000000002 120.86666666666667 62.500000000000014 124.43333333333334Q55.600000000000016 128.0 46.20000000000002 128.0Z"/>
    <path d="M129.0 128.0Q120.00000000000001 128.0 113.9 125.2Q107.80000000000001 122.4 103.86666666666669 117.6L96.60000000000002 127.33333333333333H96.33333333333334V100.0H96.60000000000002Q97.73333333333335 105.93333333333334 100.06666666666669 110.96666666666667Q102.40000000000002 116.0 106.16666666666669 119.73333333333333Q109.93333333333335 123.46666666666667 115.30000000000001 125.53333333333333Q120.66666666666669 127.6 127.93333333333335 127.6Q135.0 127.6 140.33333333333334 125.06666666666666Q145.66666666666669 122.53333333333333 148.66666666666669 117.56666666666666Q151.66666666666669 112.6 151.66666666666669 105.33333333333333Q151.66666666666669 99.46666666666667 148.73333333333335 95.4Q145.8 91.33333333333334 141.0 88.33333333333334Q136.20000000000002 85.33333333333334 130.43333333333334 82.73333333333333Q124.66666666666669 80.13333333333333 118.90000000000002 77.33333333333333Q113.13333333333335 74.53333333333333 108.33333333333334 70.83333333333333Q103.53333333333335 67.13333333333333 100.60000000000002 61.93333333333333Q97.66666666666669 56.733333333333334 97.66666666666669 49.33333333333333Q97.66666666666669 42.0 101.50000000000001 36.43333333333334Q105.33333333333334 30.866666666666674 111.60000000000001 27.766666666666673Q117.86666666666667 24.66666666666667 125.26666666666668 24.66666666666667Q132.0666666666667 24.66666666666667 137.53333333333336 26.800000000000004Q143.0 28.933333333333337 146.86666666666667 33.46666666666667L154.0666666666667 24.66666666666667H154.33333333333334V52.0H154.0666666666667Q152.73333333333335 42.733333333333334 148.9666666666667 36.800000000000004Q145.20000000000002 30.866666666666674 139.4666666666667 28.03333333333334Q133.73333333333335 25.200000000000003 126.60000000000002 25.200000000000003Q117.00000000000001 25.200000000000003 112.00000000000001 29.96666666666667Q107.00000000000001 34.733333333333334 107.00000000000001 42.66666666666667Q107.00000000000001 47.93333333333334 109.86666666666667 51.63333333333333Q112.73333333333335 55.33333333333333 117.4 58.166666666666664Q122.06666666666668 61.0 127.70000000000002 63.56666666666666Q133.33333333333334 66.13333333333333 138.9666666666667 69.1Q144.60000000000002 72.06666666666666 149.26666666666668 76.06666666666666Q153.93333333333334 80.06666666666666 156.8 85.7Q159.66666666666669 91.33333333333334 159.66666666666669 99.33333333333333Q159.66666666666669 108.0 155.93333333333334 114.43333333333334Q152.20000000000002 120.86666666666667 145.3 124.43333333333334Q138.4 128.0 129.0 128.0Z"/>
    <path d="M-76.71466666666666 188.64Q-79.59466666666667 188.64 -81.54666666666667 187.744Q-83.49866666666667 186.848 -84.75733333333334 185.312L-87.08266666666667 188.42666666666668H-87.16799999999999V179.68H-87.08266666666667Q-86.72 181.57866666666666 -85.97333333333333 183.18933333333334Q-85.22666666666666 184.8 -84.02133333333333 185.99466666666666Q-82.816 187.18933333333334 -81.09866666666667 187.85066666666665Q-79.38133333333333 188.512 -77.056 188.512Q-74.79466666666667 188.512 -73.088 187.70133333333334Q-71.38133333333333 186.89066666666668 -70.42133333333334 185.30133333333333Q-69.46133333333333 183.712 -69.46133333333333 181.38666666666666Q-69.46133333333333 179.50933333333333 -70.4 178.208Q-71.33866666666667 176.90666666666667 -72.87466666666667 175.94666666666666Q-74.41066666666667 174.98666666666668 -76.256 174.15466666666669Q-78.10133333333333 173.32266666666666 -79.94666666666666 172.42666666666668Q-81.792 171.53066666666666 -83.328 170.34666666666666Q-84.864 169.16266666666667 -85.80266666666667 167.49866666666668Q-86.74133333333333 165.83466666666666 -86.74133333333333 163.46666666666667Q-86.74133333333333 161.12 -85.51466666666667 159.33866666666665Q-84.288 157.55733333333333 -82.28266666666667 156.56533333333334Q-80.27733333333333 155.57333333333332 -77.90933333333334 155.57333333333332Q-75.73333333333333 155.57333333333332 -73.98400000000001 156.256Q-72.23466666666667 156.93866666666668 -70.99733333333333 158.38933333333333L-68.69333333333333 155.57333333333332H-68.608V164.32H-68.69333333333333Q-69.12 161.35466666666667 -70.32533333333333 159.45600000000002Q-71.53066666666666 157.55733333333333 -73.36533333333333 156.65066666666667Q-75.2 155.744 -77.48266666666666 155.744Q-80.55466666666666 155.744 -82.15466666666666 157.26933333333335Q-83.75466666666667 158.79466666666667 -83.75466666666667 161.33333333333334Q-83.75466666666667 163.01866666666666 -82.83733333333333 164.20266666666666Q-81.92 165.38666666666666 -80.42666666666668 166.29333333333332Q-78.93333333333334 167.2 -77.13066666666667 168.02133333333333Q-75.328 168.84266666666667 -73.52533333333334 169.792Q-71.72266666666667 170.74133333333333 -70.22933333333333 172.02133333333333Q-68.736 173.30133333333333 -67.81866666666667 175.10399999999998Q-66.90133333333333 176.90666666666667 -66.90133333333333 179.46666666666667Q-66.90133333333333 182.24 -68.096 184.2986666666667Q-69.29066666666667 186.35733333333334 -71.49866666666667 187.49866666666668Q-73.70666666666666 188.64 -76.71466666666666 188.64Z"/>
    <path d="M-54.08 188.0V187.91466666666668H-50.26133333333333V156.08533333333332H-54.08V156.0H-31.70133333333333V164.74666666666667H-31.76533333333333Q-31.76533333333333 162.464 -32.512 160.49066666666667Q-33.25866666666666 158.51733333333334 -34.848 157.30133333333333Q-36.43733333333333 156.08533333333332 -38.93333333333333 156.08533333333332H-46.18666666666667V187.91466666666668H-39.36640935672514Q-36.43733333333333 187.91466666666668 -34.67733333333333 186.66666666666669Q-32.91733333333333 185.41866666666667 -32.128 183.264Q-31.338666666666665 181.10933333333332 -31.338666666666665 178.4H-31.25333333333333V188.0ZM-39.01866666666666 176.13866666666667Q-39.01866666666666 174.70933333333335 -39.65866666666666 173.664Q-40.29866666666666 172.61866666666666 -41.35466666666666 172.05333333333334Q-42.410666666666664 171.488 -43.626666666666665 171.488H-47.89333333333333V171.40266666666668H-43.626666666666665Q-42.410666666666664 171.40266666666668 -41.35466666666666 170.89066666666668Q-40.29866666666666 170.37866666666667 -39.65866666666666 169.38666666666666Q-39.01866666666666 168.39466666666667 -39.01866666666666 166.96533333333332H-38.93333333333333V176.13866666666667Z"/>
    <path d="M-3.434666666666663 188.42666666666668Q-6.67733333333333 188.42666666666668 -9.215999999999996 187.15733333333333Q-11.754666666666662 185.888 -13.514666666666661 183.62666666666667Q-15.274666666666661 181.36533333333333 -16.191999999999993 178.38933333333333Q-17.10933333333333 175.41333333333333 -17.10933333333333 172.0Q-17.10933333333333 168.58666666666667 -16.13670572390572 165.61066666666667Q-15.16407811447811 162.63466666666667 -13.36845791245791 160.37333333333333Q-11.572837710437707 158.112 -9.050418855218851 156.84266666666667Q-6.527999999999995 155.57333333333332 -3.434666666666663 155.57333333333332Q-0.3413333333333277 155.57333333333332 2.165333333333338 156.84266666666667Q4.672000000000004 158.112 6.474666666666671 160.37333333333333Q8.277333333333338 162.63466666666667 9.237333333333337 165.61066666666667Q10.197333333333336 168.58666666666667 10.197333333333336 172.0Q10.197333333333336 175.41333333333333 9.29066666666667 178.38933333333333Q8.384000000000004 181.36533333333333 6.634666666666671 183.62666666666667Q4.885333333333339 185.888 2.346666666666671 187.15733333333333Q-0.19199999999999662 188.42666666666668 -3.434666666666663 188.42666666666668ZM-3.434666666666663 188.34133333333332Q-0.639999999999997 188.34133333333332 1.0773333333333373 186.90133333333333Q2.7946666666666715 185.46133333333333 3.712000000000005 183.08266666666668Q4.629333333333339 180.704 4.960000000000004 177.80266666666665Q5.29066666666667 174.90133333333333 5.29066666666667 171.98933333333332Q5.29066666666667 169.07733333333334 4.90666666666667 166.18666666666667Q4.5226666666666695 163.296 3.552000000000003 160.91733333333332Q2.581333333333337 158.53866666666667 0.8806972909305095 157.09866666666667Q-0.8199387514723178 155.65866666666668 -3.434666666666663 155.65866666666668Q-6.058666666666662 155.65866666666668 -7.765333333333329 157.09866666666667Q-9.471999999999996 158.53866666666667 -10.442666666666662 160.91733333333332Q-11.413333333333329 163.296 -11.807999999999996 166.18666666666667Q-12.202666666666662 169.07733333333334 -12.202666666666662 171.98933333333332Q-12.202666666666662 174.90133333333333 -11.861333333333329 177.80266666666665Q-11.519999999999996 180.704 -10.602666666666662 183.08266666666668Q-9.685333333333329 185.46133333333333 -7.946666666666663 186.90133333333333Q-6.207999999999997 188.34133333333332 -3.434666666666663 188.34133333333332Z"/>
    <path d="M51.66933333333334 156.0V156.08533333333332H47.44533333333334V178.18666666666667Q47.44533333333334 183.456 45.248000000000005 186.048Q43.05066666666667 188.64 37.994666666666674 188.64Q32.46933333333334 188.64 29.89866666666667 186.176Q27.328000000000007 183.712 27.328000000000007 178.18666666666667V156.08533333333332H23.509333333333338V156.0H35.66933333333334V156.08533333333332H31.402666666666672V177.76Q31.402666666666672 179.872 31.712000000000003 181.792Q32.02133333333334 183.712 32.82133333333334 185.20533333333333Q33.62133333333334 186.69866666666667 35.08266666666667 187.56266666666667Q36.544000000000004 188.42666666666668 38.848000000000006 188.42666666666668Q41.70666666666667 188.42666666666668 43.59466666666667 187.30666666666667Q45.482666666666674 186.18666666666667 46.42133333333334 183.91466666666668Q47.36000000000001 181.64266666666666 47.36000000000001 178.18666666666667V156.08533333333332H43.328V156.0Z"/>
    <path d="M64.08533333333334 188.0V187.91466666666668H67.90400000000001V156.08533333333332H64.08533333333334V156.0H75.79733333333334V156.08533333333332H71.97866666666667V187.91466666666668H78.57066666666667Q81.08800000000001 187.91466666666668 82.66666666666667 187.2Q84.24533333333333 186.48533333333333 85.09866666666667 185.19466666666665Q85.952 183.904 86.272 182.16533333333334Q86.59200000000001 180.42666666666668 86.59200000000001 178.4H86.67733333333334V188.0Z"/>
  </g>
</svg>
