<svg xmlns="http://www.w3.org/2000/svg" viewBox="0 0 1200 1600" role="img" aria-labelledby="title desc">
  <title id="title">성수 무화과 리드 디퓨저 200ml</title>
  <desc id="desc">투명 사각 유리병과 블랙 리드 스틱 8가닥, 무화과와 콘크리트 테이블 무드의 흑백 제품컷</desc>
  <defs>
    <linearGradient id="glass" x1="0" x2="1">
      <stop offset="0" stop-color="#f5f5f5"/>
      <stop offset="0.28" stop-color="#d4d4d4"/>
      <stop offset="0.52" stop-color="#fff"/>
      <stop offset="0.78" stop-color="#c9c9c9"/>
      <stop offset="1" stop-color="#f2f2f2"/>
    </linearGradient>
    <radialGradient id="shadow" cx="50%" cy="50%" r="50%">
      <stop offset="0" stop-color="#111" stop-opacity=".24"/>
      <stop offset="1" stop-color="#111" stop-opacity="0"/>
    </radialGradient>
    <pattern id="grain" width="42" height="42" patternUnits="userSpaceOnUse">
      <circle cx="8" cy="12" r="1.5" fill="#111" opacity=".08"/>
      <circle cx="28" cy="30" r="1" fill="#111" opacity=".07"/>
      <circle cx="36" cy="8" r="1.2" fill="#111" opacity=".05"/>
    </pattern>
  </defs>
  <rect width="1200" height="1600" fill="#fff"/>
  <rect y="1040" width="1200" height="560" fill="#f6f6f6"/>
  <rect y="1040" width="1200" height="560" fill="url(#grain)"/>
  <ellipse cx="603" cy="1214" rx="276" ry="74" fill="url(#shadow)"/>
  <g opacity=".92">
    <ellipse cx="278" cy="1138" rx="94" ry="68" fill="#efefef" stroke="#111" stroke-width="5"/>
    <path d="M233 1138c28-50 64-66 107-43-12 56-49 86-107 43z" fill="#fff" stroke="#111" stroke-width="4"/>
    <circle cx="294" cy="1128" r="3" fill="#111" opacity=".55"/>
    <circle cx="310" cy="1144" r="3" fill="#111" opacity=".45"/>
    <circle cx="272" cy="1150" r="2.5" fill="#111" opacity=".5"/>
  </g>
  <g stroke="#111" stroke-linecap="round" stroke-width="17">
    <line x1="480" y1="230" x2="562" y2="780"/>
    <line x1="528" y1="205" x2="582" y2="780"/>
    <line x1="578" y1="188" x2="600" y2="782"/>
    <line x1="628" y1="190" x2="616" y2="782"/>
    <line x1="676" y1="218" x2="636" y2="780"/>
    <line x1="722" y1="252" x2="654" y2="780"/>
    <line x1="435" y1="292" x2="545" y2="782"/>
    <line x1="765" y1="302" x2="672" y2="782"/>
  </g>
  <g>
    <rect x="462" y="688" width="276" height="78" rx="12" fill="#111"/>
    <path d="M420 760h360l-42 405c-7 68-43 102-111 102h-54c-68 0-104-34-111-102z" fill="url(#glass)" stroke="#111" stroke-width="8"/>
    <path d="M492 786h216l-25 354c-5 50-30 74-75 74h-16c-45 0-70-24-75-74z" fill="#fff" opacity=".32"/>
    <rect x="524" y="898" width="152" height="130" rx="3" fill="#fff" opacity=".55" stroke="#111" stroke-opacity=".18"/>
    <path d="M461 1020h278" stroke="#111" stroke-width="2" opacity=".12"/>
  </g>
  <path d="M825 1118c52-22 99-14 139 23-24 47-65 62-123 43-47-15-54-42-16-66z" fill="#f1f1f1" stroke="#111" stroke-width="5"/>
  <path d="M866 1134c25-20 52-22 81-5-12 32-35 47-70 42-31-5-35-19-11-37z" fill="#fff" stroke="#111" stroke-width="4"/>
</svg>
