<svg xmlns="http://www.w3.org/2000/svg" viewBox="0 0 1200 1600" role="img" aria-labelledby="title desc">
  <title id="title">애프터눈 티 리드 디퓨저 출시 예정</title>
  <desc id="desc">투명 사각 유리병과 블랙 리드 스틱 8가닥, 티타임 무드의 흑백 출시 예정 제품컷</desc>
  <defs>
    <linearGradient id="glass" x1="0" x2="1">
      <stop offset="0" stop-color="#f6f6f6"/>
      <stop offset="0.24" stop-color="#d2d2d2"/>
      <stop offset="0.5" stop-color="#fff"/>
      <stop offset="0.78" stop-color="#cacaca"/>
      <stop offset="1" stop-color="#f3f3f3"/>
    </linearGradient>
    <radialGradient id="shadow" cx="50%" cy="50%" r="50%">
      <stop offset="0" stop-color="#111" stop-opacity=".23"/>
      <stop offset="1" stop-color="#111" stop-opacity="0"/>
    </radialGradient>
  </defs>
  <rect width="1200" height="1600" fill="#fff"/>
  <rect y="1040" width="1200" height="560" fill="#f8f8f8"/>
  <ellipse cx="600" cy="1216" rx="270" ry="74" fill="url(#shadow)"/>
  <g opacity=".95">
    <ellipse cx="896" cy="1138" rx="142" ry="50" fill="#f2f2f2" stroke="#111" stroke-width="5"/>
    <path d="M780 1086h214c-7 76-45 114-108 114s-99-38-106-114z" fill="#fff" stroke="#111" stroke-width="5"/>
    <path d="M986 1110c59-14 85 16 69 53-12 28-43 39-83 23" fill="none" stroke="#111" stroke-width="5"/>
    <path d="M828 1088c42 20 83 20 123 0" fill="none" stroke="#111" stroke-opacity=".18" stroke-width="5"/>
    <path d="M828 1022c-18-40 30-47 10-89" fill="none" stroke="#111" stroke-opacity=".25" stroke-width="4"/>
    <path d="M888 1016c-22-47 34-52 12-96" fill="none" stroke="#111" stroke-opacity=".25" stroke-width="4"/>
  </g>
  <g stroke="#111" stroke-linecap="round" stroke-width="17">
    <line x1="478" y1="238" x2="562" y2="780"/>
    <line x1="526" y1="208" x2="582" y2="780"/>
    <line x1="576" y1="184" x2="600" y2="782"/>
    <line x1="626" y1="190" x2="615" y2="782"/>
    <line x1="676" y1="216" x2="635" y2="780"/>
    <line x1="722" y1="254" x2="654" y2="780"/>
    <line x1="436" y1="290" x2="545" y2="782"/>
    <line x1="764" y1="302" x2="672" y2="782"/>
  </g>
  <g>
    <rect x="462" y="688" width="276" height="78" rx="12" fill="#111"/>
    <path d="M420 760h360l-42 405c-7 68-43 102-111 102h-54c-68 0-104-34-111-102z" fill="url(#glass)" stroke="#111" stroke-width="8"/>
    <path d="M492 786h216l-25 354c-5 50-30 74-75 74h-16c-45 0-70-24-75-74z" fill="#fff" opacity=".34"/>
    <rect x="524" y="898" width="152" height="130" rx="3" fill="#fff" opacity=".55" stroke="#111" stroke-opacity=".18"/>
  </g>
  <g fill="none" stroke="#d8d8d8" stroke-width="4">
    <path d="M180 1118c86-12 160-4 222 24"/>
    <path d="M168 1184c96-9 178-1 244 24"/>
  </g>
</svg>
